<mxfile host="app.diagrams.net" modified="2021-02-03T03:44:56.114Z" agent="5.0 (Windows NT 10.0; Win64; x64) AppleWebKit/537.36 (KHTML, like Gecko) Chrome/88.0.4324.104 Safari/537.36" etag="8_y0Na2f1NNUj0AzfWYv" version="14.2.9" type="github">
  <diagram id="kgpKYQtTHZ0yAKxKKP6v" name="Page-1">
    <mxGraphModel dx="981" dy="548" grid="1" gridSize="10" guides="1" tooltips="1" connect="1" arrows="1" fold="1" page="1" pageScale="1" pageWidth="850" pageHeight="1100" math="0" shadow="0">
      <root>
        <mxCell id="0" />
        <mxCell id="1" parent="0" />
        <mxCell id="3nuBFxr9cyL0pnOWT2aG-1" value="外网用户" style="shape=umlLifeline;perimeter=lifelinePerimeter;container=1;collapsible=0;recursiveResize=0;shadow=0;strokeWidth=1;rounded=1;" parent="1" vertex="1">
          <mxGeometry x="45" y="80" width="100" height="300" as="geometry" />
        </mxCell>
        <mxCell id="3nuBFxr9cyL0pnOWT2aG-2" value="" style="points=[];perimeter=orthogonalPerimeter;shadow=0;strokeWidth=1;rounded=1;" parent="3nuBFxr9cyL0pnOWT2aG-1" vertex="1">
          <mxGeometry x="45" y="70" width="10" height="190" as="geometry" />
        </mxCell>
        <mxCell id="3nuBFxr9cyL0pnOWT2aG-5" value="云梯（jarvis-soa）" style="shape=umlLifeline;perimeter=lifelinePerimeter;container=1;collapsible=0;recursiveResize=0;shadow=0;strokeWidth=1;rounded=1;fillColor=#e51400;strokeColor=#B20000;fontColor=#ffffff;" parent="1" vertex="1">
          <mxGeometry x="225" y="80" width="100" height="300" as="geometry" />
        </mxCell>
        <mxCell id="3nuBFxr9cyL0pnOWT2aG-6" value="" style="points=[];perimeter=orthogonalPerimeter;shadow=0;strokeWidth=1;rounded=1;" parent="3nuBFxr9cyL0pnOWT2aG-5" vertex="1">
          <mxGeometry x="45" y="80" width="10" height="180" as="geometry" />
        </mxCell>
        <mxCell id="3nuBFxr9cyL0pnOWT2aG-7" value="return" style="verticalAlign=bottom;endArrow=open;dashed=1;endSize=8;exitX=-0.25;exitY=0.994;shadow=0;strokeWidth=1;curved=1;exitDx=0;exitDy=0;exitPerimeter=0;" parent="1" source="3nuBFxr9cyL0pnOWT2aG-6" target="3nuBFxr9cyL0pnOWT2aG-2" edge="1">
          <mxGeometry relative="1" as="geometry">
            <mxPoint x="200" y="236" as="targetPoint" />
          </mxGeometry>
        </mxCell>
        <mxCell id="3nuBFxr9cyL0pnOWT2aG-8" value="访问idc-jarvis-api.tencent.com" style="verticalAlign=bottom;endArrow=block;entryX=0;entryY=0;shadow=0;strokeWidth=1;curved=1;" parent="1" source="3nuBFxr9cyL0pnOWT2aG-2" target="3nuBFxr9cyL0pnOWT2aG-6" edge="1">
          <mxGeometry relative="1" as="geometry">
            <mxPoint x="200" y="160" as="sourcePoint" />
          </mxGeometry>
        </mxCell>
        <mxCell id="pnKsWl6k3-rWOxbT1f3y-1" value="云梯Nginx(CVM)" style="shape=umlLifeline;perimeter=lifelinePerimeter;container=1;collapsible=0;recursiveResize=0;shadow=0;strokeWidth=1;rounded=1;" vertex="1" parent="1">
          <mxGeometry x="375" y="80" width="100" height="300" as="geometry" />
        </mxCell>
        <mxCell id="pnKsWl6k3-rWOxbT1f3y-2" value="" style="points=[];perimeter=orthogonalPerimeter;shadow=0;strokeWidth=1;rounded=1;" vertex="1" parent="pnKsWl6k3-rWOxbT1f3y-1">
          <mxGeometry x="45" y="90" width="10" height="140" as="geometry" />
        </mxCell>
        <mxCell id="pnKsWl6k3-rWOxbT1f3y-3" value="应用网关" style="shape=umlLifeline;perimeter=lifelinePerimeter;container=1;collapsible=0;recursiveResize=0;shadow=0;strokeWidth=1;rounded=1;" vertex="1" parent="1">
          <mxGeometry x="505" y="80" width="100" height="300" as="geometry" />
        </mxCell>
        <mxCell id="pnKsWl6k3-rWOxbT1f3y-4" value="" style="points=[];perimeter=orthogonalPerimeter;shadow=0;strokeWidth=1;rounded=1;" vertex="1" parent="pnKsWl6k3-rWOxbT1f3y-3">
          <mxGeometry x="45" y="110" width="10" height="110" as="geometry" />
        </mxCell>
        <mxCell id="pnKsWl6k3-rWOxbT1f3y-5" value="OAVPC(jarvis-soa)" style="shape=umlLifeline;perimeter=lifelinePerimeter;container=1;collapsible=0;recursiveResize=0;shadow=0;strokeWidth=1;rounded=1;fillColor=#e51400;strokeColor=#B20000;fontColor=#ffffff;" vertex="1" parent="1">
          <mxGeometry x="635" y="80" width="100" height="300" as="geometry" />
        </mxCell>
        <mxCell id="pnKsWl6k3-rWOxbT1f3y-6" value="" style="points=[];perimeter=orthogonalPerimeter;shadow=0;strokeWidth=1;rounded=1;" vertex="1" parent="pnKsWl6k3-rWOxbT1f3y-5">
          <mxGeometry x="45" y="120" width="10" height="80" as="geometry" />
        </mxCell>
        <mxCell id="pnKsWl6k3-rWOxbT1f3y-24" value="return" style="verticalAlign=bottom;endArrow=open;dashed=1;endSize=8;exitX=0;exitY=0.95;shadow=0;strokeWidth=1;curved=1;" edge="1" parent="pnKsWl6k3-rWOxbT1f3y-5">
          <mxGeometry relative="1" as="geometry">
            <mxPoint x="55" y="189" as="targetPoint" />
            <mxPoint x="170" y="189.31" as="sourcePoint" />
          </mxGeometry>
        </mxCell>
        <mxCell id="pnKsWl6k3-rWOxbT1f3y-9" value="Actor" style="shape=umlActor;verticalLabelPosition=bottom;verticalAlign=top;html=1;outlineConnect=0;rounded=1;" vertex="1" parent="1">
          <mxGeometry x="45" y="130" width="30" height="60" as="geometry" />
        </mxCell>
        <mxCell id="3nuBFxr9cyL0pnOWT2aG-3" value="" style="verticalAlign=bottom;startArrow=oval;endArrow=block;startSize=8;shadow=0;strokeWidth=1;exitX=1;exitY=0.3333333333333333;exitDx=0;exitDy=0;exitPerimeter=0;curved=1;" parent="1" target="3nuBFxr9cyL0pnOWT2aG-2" edge="1" source="pnKsWl6k3-rWOxbT1f3y-9">
          <mxGeometry relative="1" as="geometry">
            <mxPoint x="30" y="150" as="sourcePoint" />
          </mxGeometry>
        </mxCell>
        <mxCell id="pnKsWl6k3-rWOxbT1f3y-13" value="http invoke" style="verticalAlign=bottom;endArrow=block;shadow=0;strokeWidth=1;curved=1;fontColor=#FF0000;" edge="1" parent="1">
          <mxGeometry relative="1" as="geometry">
            <mxPoint x="280" y="170.0000000000001" as="sourcePoint" />
            <mxPoint x="420" y="170" as="targetPoint" />
          </mxGeometry>
        </mxCell>
        <mxCell id="pnKsWl6k3-rWOxbT1f3y-14" value="proxy_pass" style="verticalAlign=bottom;endArrow=block;shadow=0;strokeWidth=1;curved=1;" edge="1" parent="1" target="pnKsWl6k3-rWOxbT1f3y-3">
          <mxGeometry relative="1" as="geometry">
            <mxPoint x="430" y="190.0000000000001" as="sourcePoint" />
            <mxPoint x="540" y="190" as="targetPoint" />
          </mxGeometry>
        </mxCell>
        <mxCell id="pnKsWl6k3-rWOxbT1f3y-15" value="访问网关实例" style="verticalAlign=bottom;endArrow=block;shadow=0;strokeWidth=1;curved=1;" edge="1" parent="1">
          <mxGeometry relative="1" as="geometry">
            <mxPoint x="560" y="200.0000000000001" as="sourcePoint" />
            <mxPoint x="684.5" y="200.0000000000001" as="targetPoint" />
          </mxGeometry>
        </mxCell>
        <mxCell id="pnKsWl6k3-rWOxbT1f3y-16" value="OAVPC服务提供者" style="shape=umlLifeline;perimeter=lifelinePerimeter;container=1;collapsible=0;recursiveResize=0;shadow=0;strokeWidth=1;rounded=1;fillColor=#e51400;strokeColor=#B20000;fontColor=#ffffff;" vertex="1" parent="1">
          <mxGeometry x="760" y="80" width="100" height="300" as="geometry" />
        </mxCell>
        <mxCell id="pnKsWl6k3-rWOxbT1f3y-17" value="" style="points=[];perimeter=orthogonalPerimeter;shadow=0;strokeWidth=1;rounded=1;" vertex="1" parent="pnKsWl6k3-rWOxbT1f3y-16">
          <mxGeometry x="45" y="140" width="10" height="50" as="geometry" />
        </mxCell>
        <mxCell id="pnKsWl6k3-rWOxbT1f3y-18" value="rpc invoke" style="verticalAlign=bottom;endArrow=block;shadow=0;strokeWidth=1;curved=1;fontColor=#FF0000;" edge="1" parent="1">
          <mxGeometry relative="1" as="geometry">
            <mxPoint x="690" y="220.0000000000001" as="sourcePoint" />
            <mxPoint x="814.5" y="220.0000000000001" as="targetPoint" />
          </mxGeometry>
        </mxCell>
        <mxCell id="pnKsWl6k3-rWOxbT1f3y-19" value="应用网关idc-&amp;gt;oa&lt;br&gt;代理地址&lt;br&gt;ebs.oss.com/***" style="text;html=1;align=center;verticalAlign=middle;resizable=0;points=[];autosize=1;rounded=1;" vertex="1" parent="1">
          <mxGeometry x="440" y="195" width="100" height="50" as="geometry" />
        </mxCell>
        <mxCell id="pnKsWl6k3-rWOxbT1f3y-20" value="idc-&amp;gt;oa 网关地址&lt;br&gt;idc.jarvis-api.woa.com" style="text;html=1;align=center;verticalAlign=middle;resizable=0;points=[];autosize=1;rounded=1;" vertex="1" parent="1">
          <mxGeometry x="284" y="175" width="130" height="30" as="geometry" />
        </mxCell>
        <mxCell id="pnKsWl6k3-rWOxbT1f3y-21" value="oa网关地址&lt;br&gt;jarvis-api.woa.com" style="text;html=1;align=center;verticalAlign=middle;resizable=0;points=[];autosize=1;rounded=1;" vertex="1" parent="1">
          <mxGeometry x="565" y="205" width="110" height="30" as="geometry" />
        </mxCell>
        <mxCell id="pnKsWl6k3-rWOxbT1f3y-22" value="idc网关内网地址&lt;br&gt;jarvis-api-idc.woa.com" style="text;html=1;align=center;verticalAlign=middle;resizable=0;points=[];autosize=1;rounded=1;" vertex="1" parent="1">
          <mxGeometry x="110" y="175" width="130" height="30" as="geometry" />
        </mxCell>
        <mxCell id="pnKsWl6k3-rWOxbT1f3y-25" value="return" style="verticalAlign=bottom;endArrow=open;dashed=1;endSize=8;exitX=0;exitY=0.95;shadow=0;strokeWidth=1;curved=1;" edge="1" parent="1">
          <mxGeometry relative="1" as="geometry">
            <mxPoint x="565" y="278.9999999999999" as="targetPoint" />
            <mxPoint x="680" y="279.30999999999995" as="sourcePoint" />
          </mxGeometry>
        </mxCell>
        <mxCell id="pnKsWl6k3-rWOxbT1f3y-26" value="return" style="verticalAlign=bottom;endArrow=open;dashed=1;endSize=8;exitX=0;exitY=0.95;shadow=0;strokeWidth=1;curved=1;" edge="1" parent="1">
          <mxGeometry relative="1" as="geometry">
            <mxPoint x="432.5" y="299.9999999999999" as="targetPoint" />
            <mxPoint x="547.5" y="300.30999999999995" as="sourcePoint" />
          </mxGeometry>
        </mxCell>
        <mxCell id="pnKsWl6k3-rWOxbT1f3y-28" value="return" style="verticalAlign=bottom;endArrow=open;dashed=1;endSize=8;exitX=0;exitY=0.95;shadow=0;strokeWidth=1;curved=1;" edge="1" parent="1">
          <mxGeometry relative="1" as="geometry">
            <mxPoint x="280" y="310" as="targetPoint" />
            <mxPoint x="425" y="310.30999999999995" as="sourcePoint" />
          </mxGeometry>
        </mxCell>
        <mxCell id="pnKsWl6k3-rWOxbT1f3y-31" value="&lt;h1&gt;外网用户--&amp;gt;云梯网关--&amp;gt;云梯Nginx--&amp;gt;应用网关--&amp;gt;OAVPC网关--&amp;gt;OAVPC服务&lt;/h1&gt;" style="text;html=1;strokeColor=none;fillColor=none;spacing=5;spacingTop=-20;whiteSpace=wrap;overflow=hidden;rounded=0;fontColor=#050505;" vertex="1" parent="1">
          <mxGeometry x="45" y="30" width="845" height="40" as="geometry" />
        </mxCell>
        <mxCell id="pnKsWl6k3-rWOxbT1f3y-33" value="&lt;h1&gt;OAVPC用户--&amp;gt;OAVPC Nginx--&amp;gt;应用网关--&amp;gt;云梯网关--&amp;gt;云梯服务&lt;/h1&gt;" style="text;html=1;strokeColor=none;fillColor=none;spacing=5;spacingTop=-20;whiteSpace=wrap;overflow=hidden;rounded=0;fontColor=#050505;" vertex="1" parent="1">
          <mxGeometry x="40" y="420" width="730" height="40" as="geometry" />
        </mxCell>
        <mxCell id="pnKsWl6k3-rWOxbT1f3y-36" value="OAVPC用户" style="shape=umlLifeline;perimeter=lifelinePerimeter;container=1;collapsible=0;recursiveResize=0;shadow=0;strokeWidth=1;rounded=1;" vertex="1" parent="1">
          <mxGeometry x="45" y="470" width="100" height="300" as="geometry" />
        </mxCell>
        <mxCell id="pnKsWl6k3-rWOxbT1f3y-37" value="" style="points=[];perimeter=orthogonalPerimeter;shadow=0;strokeWidth=1;rounded=1;" vertex="1" parent="pnKsWl6k3-rWOxbT1f3y-36">
          <mxGeometry x="45" y="70" width="10" height="190" as="geometry" />
        </mxCell>
        <mxCell id="pnKsWl6k3-rWOxbT1f3y-38" value="OAVPC Nginx(CVM)" style="shape=umlLifeline;perimeter=lifelinePerimeter;container=1;collapsible=0;recursiveResize=0;shadow=0;strokeWidth=1;rounded=1;" vertex="1" parent="1">
          <mxGeometry x="210" y="470" width="115" height="300" as="geometry" />
        </mxCell>
        <mxCell id="pnKsWl6k3-rWOxbT1f3y-39" value="" style="points=[];perimeter=orthogonalPerimeter;shadow=0;strokeWidth=1;rounded=1;" vertex="1" parent="pnKsWl6k3-rWOxbT1f3y-38">
          <mxGeometry x="52.5" y="80" width="10" height="180" as="geometry" />
        </mxCell>
        <mxCell id="pnKsWl6k3-rWOxbT1f3y-40" value="return" style="verticalAlign=bottom;endArrow=open;dashed=1;endSize=8;exitX=-0.25;exitY=0.994;shadow=0;strokeWidth=1;curved=1;exitDx=0;exitDy=0;exitPerimeter=0;" edge="1" parent="1" source="pnKsWl6k3-rWOxbT1f3y-39" target="pnKsWl6k3-rWOxbT1f3y-37">
          <mxGeometry relative="1" as="geometry">
            <mxPoint x="200" y="626" as="targetPoint" />
          </mxGeometry>
        </mxCell>
        <mxCell id="pnKsWl6k3-rWOxbT1f3y-41" value="访问oa-idc.jarvis-api.woa.com" style="verticalAlign=bottom;endArrow=block;entryX=0;entryY=0;shadow=0;strokeWidth=1;curved=1;" edge="1" parent="1" source="pnKsWl6k3-rWOxbT1f3y-37" target="pnKsWl6k3-rWOxbT1f3y-39">
          <mxGeometry relative="1" as="geometry">
            <mxPoint x="200" y="550" as="sourcePoint" />
          </mxGeometry>
        </mxCell>
        <mxCell id="pnKsWl6k3-rWOxbT1f3y-42" value="应用网关" style="shape=umlLifeline;perimeter=lifelinePerimeter;container=1;collapsible=0;recursiveResize=0;shadow=0;strokeWidth=1;rounded=1;" vertex="1" parent="1">
          <mxGeometry x="375" y="470" width="100" height="300" as="geometry" />
        </mxCell>
        <mxCell id="pnKsWl6k3-rWOxbT1f3y-43" value="" style="points=[];perimeter=orthogonalPerimeter;shadow=0;strokeWidth=1;rounded=1;" vertex="1" parent="pnKsWl6k3-rWOxbT1f3y-42">
          <mxGeometry x="45" y="90" width="10" height="140" as="geometry" />
        </mxCell>
        <mxCell id="pnKsWl6k3-rWOxbT1f3y-44" value="云梯(jarvis-soa)" style="shape=umlLifeline;perimeter=lifelinePerimeter;container=1;collapsible=0;recursiveResize=0;shadow=0;strokeWidth=1;rounded=1;fillColor=#e51400;strokeColor=#B20000;fontColor=#ffffff;" vertex="1" parent="1">
          <mxGeometry x="514" y="470" width="100" height="300" as="geometry" />
        </mxCell>
        <mxCell id="pnKsWl6k3-rWOxbT1f3y-45" value="" style="points=[];perimeter=orthogonalPerimeter;shadow=0;strokeWidth=1;rounded=1;" vertex="1" parent="pnKsWl6k3-rWOxbT1f3y-44">
          <mxGeometry x="45" y="110" width="10" height="110" as="geometry" />
        </mxCell>
        <mxCell id="pnKsWl6k3-rWOxbT1f3y-46" value="云梯服务提供者" style="shape=umlLifeline;perimeter=lifelinePerimeter;container=1;collapsible=0;recursiveResize=0;shadow=0;strokeWidth=1;rounded=1;fillColor=#e51400;strokeColor=#B20000;fontColor=#ffffff;" vertex="1" parent="1">
          <mxGeometry x="635" y="470" width="100" height="300" as="geometry" />
        </mxCell>
        <mxCell id="pnKsWl6k3-rWOxbT1f3y-47" value="" style="points=[];perimeter=orthogonalPerimeter;shadow=0;strokeWidth=1;rounded=1;" vertex="1" parent="pnKsWl6k3-rWOxbT1f3y-46">
          <mxGeometry x="45" y="120" width="10" height="80" as="geometry" />
        </mxCell>
        <mxCell id="pnKsWl6k3-rWOxbT1f3y-49" value="Actor" style="shape=umlActor;verticalLabelPosition=bottom;verticalAlign=top;html=1;outlineConnect=0;rounded=1;" vertex="1" parent="1">
          <mxGeometry x="45" y="520" width="30" height="60" as="geometry" />
        </mxCell>
        <mxCell id="pnKsWl6k3-rWOxbT1f3y-50" value="" style="verticalAlign=bottom;startArrow=oval;endArrow=block;startSize=8;shadow=0;strokeWidth=1;exitX=1;exitY=0.3333333333333333;exitDx=0;exitDy=0;exitPerimeter=0;curved=1;" edge="1" parent="1" source="pnKsWl6k3-rWOxbT1f3y-49" target="pnKsWl6k3-rWOxbT1f3y-37">
          <mxGeometry relative="1" as="geometry">
            <mxPoint x="30" y="540" as="sourcePoint" />
          </mxGeometry>
        </mxCell>
        <mxCell id="pnKsWl6k3-rWOxbT1f3y-51" value="proxy_pass" style="verticalAlign=bottom;endArrow=block;shadow=0;strokeWidth=1;curved=1;fontColor=#050505;" edge="1" parent="1" source="pnKsWl6k3-rWOxbT1f3y-39">
          <mxGeometry relative="1" as="geometry">
            <mxPoint x="280" y="560.0000000000001" as="sourcePoint" />
            <mxPoint x="420" y="560" as="targetPoint" />
          </mxGeometry>
        </mxCell>
        <mxCell id="pnKsWl6k3-rWOxbT1f3y-52" value="访问网关实例" style="verticalAlign=bottom;endArrow=block;shadow=0;strokeWidth=1;curved=1;" edge="1" parent="1" target="pnKsWl6k3-rWOxbT1f3y-44">
          <mxGeometry relative="1" as="geometry">
            <mxPoint x="430" y="580.0000000000001" as="sourcePoint" />
            <mxPoint x="540" y="580" as="targetPoint" />
          </mxGeometry>
        </mxCell>
        <mxCell id="pnKsWl6k3-rWOxbT1f3y-53" value="rpc invoke" style="verticalAlign=bottom;endArrow=block;shadow=0;strokeWidth=1;curved=1;exitX=1.034;exitY=0.103;exitDx=0;exitDy=0;exitPerimeter=0;" edge="1" parent="1" source="pnKsWl6k3-rWOxbT1f3y-45">
          <mxGeometry relative="1" as="geometry">
            <mxPoint x="580" y="590" as="sourcePoint" />
            <mxPoint x="684.5" y="590.0000000000001" as="targetPoint" />
          </mxGeometry>
        </mxCell>
        <mxCell id="pnKsWl6k3-rWOxbT1f3y-57" value="idc网关内网地址&lt;br&gt;jarvis-api-idc.woa.com" style="text;html=1;align=center;verticalAlign=middle;resizable=0;points=[];autosize=1;rounded=1;" vertex="1" parent="1">
          <mxGeometry x="428" y="590" width="130" height="30" as="geometry" />
        </mxCell>
        <mxCell id="pnKsWl6k3-rWOxbT1f3y-61" value="return" style="verticalAlign=bottom;endArrow=open;dashed=1;endSize=8;exitX=0;exitY=0.95;shadow=0;strokeWidth=1;curved=1;" edge="1" parent="1">
          <mxGeometry relative="1" as="geometry">
            <mxPoint x="570" y="669" as="targetPoint" />
            <mxPoint x="680" y="669.31" as="sourcePoint" />
          </mxGeometry>
        </mxCell>
        <mxCell id="pnKsWl6k3-rWOxbT1f3y-62" value="return" style="verticalAlign=bottom;endArrow=open;dashed=1;endSize=8;exitX=0;exitY=0.95;shadow=0;strokeWidth=1;curved=1;" edge="1" parent="1">
          <mxGeometry relative="1" as="geometry">
            <mxPoint x="432.5" y="690" as="targetPoint" />
            <mxPoint x="547.5" y="690.31" as="sourcePoint" />
          </mxGeometry>
        </mxCell>
        <mxCell id="pnKsWl6k3-rWOxbT1f3y-63" value="return" style="verticalAlign=bottom;endArrow=open;dashed=1;endSize=8;exitX=0;exitY=0.95;shadow=0;strokeWidth=1;curved=1;" edge="1" parent="1" target="pnKsWl6k3-rWOxbT1f3y-39">
          <mxGeometry relative="1" as="geometry">
            <mxPoint x="280" y="700" as="targetPoint" />
            <mxPoint x="425" y="700.31" as="sourcePoint" />
          </mxGeometry>
        </mxCell>
        <mxCell id="pnKsWl6k3-rWOxbT1f3y-64" value="应用网关oa-&amp;gt;idc&lt;br&gt;代理地址&lt;br&gt;ebs.oss.com/***" style="text;html=1;align=center;verticalAlign=middle;resizable=0;points=[];autosize=1;rounded=1;" vertex="1" parent="1">
          <mxGeometry x="299" y="570" width="100" height="50" as="geometry" />
        </mxCell>
        <mxCell id="pnKsWl6k3-rWOxbT1f3y-115" value="&lt;h1&gt;OAVPC---&amp;gt;IGate--&amp;gt;云梯Nginx（http(s)多端口正向代理)--&amp;gt;外网&lt;/h1&gt;" style="text;html=1;strokeColor=none;fillColor=none;spacing=5;spacingTop=-20;whiteSpace=wrap;overflow=hidden;rounded=0;fontColor=#050505;" vertex="1" parent="1">
          <mxGeometry x="2.5" y="860" width="755" height="40" as="geometry" />
        </mxCell>
        <mxCell id="pnKsWl6k3-rWOxbT1f3y-116" value="&lt;h1&gt;OAVPC---&amp;gt;OAVPC Nginx--&amp;gt;应用网关--&amp;gt;云梯Nginx--&amp;gt;外网&lt;/h1&gt;" style="text;html=1;strokeColor=none;fillColor=none;spacing=5;spacingTop=-20;whiteSpace=wrap;overflow=hidden;rounded=0;fontColor=#050505;" vertex="1" parent="1">
          <mxGeometry x="2.5" y="1250" width="755" height="40" as="geometry" />
        </mxCell>
        <mxCell id="pnKsWl6k3-rWOxbT1f3y-117" value="OAVPC用户" style="shape=umlLifeline;perimeter=lifelinePerimeter;container=1;collapsible=0;recursiveResize=0;shadow=0;strokeWidth=1;rounded=1;" vertex="1" parent="1">
          <mxGeometry x="45" y="920" width="100" height="300" as="geometry" />
        </mxCell>
        <mxCell id="pnKsWl6k3-rWOxbT1f3y-118" value="" style="points=[];perimeter=orthogonalPerimeter;shadow=0;strokeWidth=1;rounded=1;" vertex="1" parent="pnKsWl6k3-rWOxbT1f3y-117">
          <mxGeometry x="45" y="70" width="10" height="190" as="geometry" />
        </mxCell>
        <mxCell id="pnKsWl6k3-rWOxbT1f3y-119" value="IGate 云梯服务注册" style="shape=umlLifeline;perimeter=lifelinePerimeter;container=1;collapsible=0;recursiveResize=0;shadow=0;strokeWidth=1;rounded=1;" vertex="1" parent="1">
          <mxGeometry x="218" y="920" width="115" height="300" as="geometry" />
        </mxCell>
        <mxCell id="pnKsWl6k3-rWOxbT1f3y-120" value="" style="points=[];perimeter=orthogonalPerimeter;shadow=0;strokeWidth=1;rounded=1;" vertex="1" parent="pnKsWl6k3-rWOxbT1f3y-119">
          <mxGeometry x="52.5" y="80" width="10" height="180" as="geometry" />
        </mxCell>
        <mxCell id="pnKsWl6k3-rWOxbT1f3y-121" value="return" style="verticalAlign=bottom;endArrow=open;dashed=1;endSize=8;exitX=-0.25;exitY=0.994;shadow=0;strokeWidth=1;curved=1;exitDx=0;exitDy=0;exitPerimeter=0;" edge="1" parent="1" source="pnKsWl6k3-rWOxbT1f3y-120" target="pnKsWl6k3-rWOxbT1f3y-118">
          <mxGeometry relative="1" as="geometry">
            <mxPoint x="200" y="1076" as="targetPoint" />
          </mxGeometry>
        </mxCell>
        <mxCell id="pnKsWl6k3-rWOxbT1f3y-122" value="设置 http(s)_proxy等代理环境变量" style="verticalAlign=bottom;endArrow=block;entryX=0;entryY=0;shadow=0;strokeWidth=1;curved=1;" edge="1" parent="1" source="pnKsWl6k3-rWOxbT1f3y-118" target="pnKsWl6k3-rWOxbT1f3y-120">
          <mxGeometry relative="1" as="geometry">
            <mxPoint x="200" y="1000" as="sourcePoint" />
          </mxGeometry>
        </mxCell>
        <mxCell id="pnKsWl6k3-rWOxbT1f3y-123" value="云梯Nginx" style="shape=umlLifeline;perimeter=lifelinePerimeter;container=1;collapsible=0;recursiveResize=0;shadow=0;strokeWidth=1;rounded=1;" vertex="1" parent="1">
          <mxGeometry x="375" y="920" width="100" height="300" as="geometry" />
        </mxCell>
        <mxCell id="pnKsWl6k3-rWOxbT1f3y-124" value="" style="points=[];perimeter=orthogonalPerimeter;shadow=0;strokeWidth=1;rounded=1;" vertex="1" parent="pnKsWl6k3-rWOxbT1f3y-123">
          <mxGeometry x="45" y="90" width="10" height="140" as="geometry" />
        </mxCell>
        <mxCell id="pnKsWl6k3-rWOxbT1f3y-125" value="外网http(s)接口" style="shape=umlLifeline;perimeter=lifelinePerimeter;container=1;collapsible=0;recursiveResize=0;shadow=0;strokeWidth=1;rounded=1;" vertex="1" parent="1">
          <mxGeometry x="605" y="920" width="100" height="300" as="geometry" />
        </mxCell>
        <mxCell id="pnKsWl6k3-rWOxbT1f3y-126" value="" style="points=[];perimeter=orthogonalPerimeter;shadow=0;strokeWidth=1;rounded=1;" vertex="1" parent="pnKsWl6k3-rWOxbT1f3y-125">
          <mxGeometry x="45" y="110" width="10" height="110" as="geometry" />
        </mxCell>
        <mxCell id="pnKsWl6k3-rWOxbT1f3y-127" value="Actor" style="shape=umlActor;verticalLabelPosition=bottom;verticalAlign=top;html=1;outlineConnect=0;rounded=1;" vertex="1" parent="1">
          <mxGeometry x="45" y="970" width="30" height="60" as="geometry" />
        </mxCell>
        <mxCell id="pnKsWl6k3-rWOxbT1f3y-128" value="" style="verticalAlign=bottom;startArrow=oval;endArrow=block;startSize=8;shadow=0;strokeWidth=1;exitX=1;exitY=0.3333333333333333;exitDx=0;exitDy=0;exitPerimeter=0;curved=1;" edge="1" parent="1" source="pnKsWl6k3-rWOxbT1f3y-127" target="pnKsWl6k3-rWOxbT1f3y-118">
          <mxGeometry relative="1" as="geometry">
            <mxPoint x="30" y="990" as="sourcePoint" />
          </mxGeometry>
        </mxCell>
        <mxCell id="pnKsWl6k3-rWOxbT1f3y-129" value="igate云梯服务端口打通" style="verticalAlign=bottom;endArrow=block;shadow=0;strokeWidth=1;curved=1;fontColor=#050505;" edge="1" parent="1">
          <mxGeometry relative="1" as="geometry">
            <mxPoint x="280" y="1010" as="sourcePoint" />
            <mxPoint x="420" y="1010" as="targetPoint" />
          </mxGeometry>
        </mxCell>
        <mxCell id="pnKsWl6k3-rWOxbT1f3y-130" value="http proxy connect" style="verticalAlign=bottom;endArrow=block;shadow=0;strokeWidth=1;curved=1;" edge="1" parent="1" target="pnKsWl6k3-rWOxbT1f3y-125">
          <mxGeometry relative="1" as="geometry">
            <mxPoint x="430" y="1030" as="sourcePoint" />
            <mxPoint x="540" y="1030" as="targetPoint" />
          </mxGeometry>
        </mxCell>
        <mxCell id="pnKsWl6k3-rWOxbT1f3y-131" value="nginx lua http(s)多端口正向代理" style="text;html=1;align=center;verticalAlign=middle;resizable=0;points=[];autosize=1;rounded=1;" vertex="1" parent="1">
          <mxGeometry x="445" y="1030" width="180" height="20" as="geometry" />
        </mxCell>
        <mxCell id="pnKsWl6k3-rWOxbT1f3y-132" value="return" style="verticalAlign=bottom;endArrow=open;dashed=1;endSize=8;shadow=0;strokeWidth=1;curved=1;" edge="1" parent="1" source="pnKsWl6k3-rWOxbT1f3y-126">
          <mxGeometry relative="1" as="geometry">
            <mxPoint x="432.5" y="1140" as="targetPoint" />
            <mxPoint x="547.5" y="1140.31" as="sourcePoint" />
          </mxGeometry>
        </mxCell>
        <mxCell id="pnKsWl6k3-rWOxbT1f3y-133" value="return" style="verticalAlign=bottom;endArrow=open;dashed=1;endSize=8;exitX=0;exitY=0.95;shadow=0;strokeWidth=1;curved=1;" edge="1" parent="1">
          <mxGeometry relative="1" as="geometry">
            <mxPoint x="280" y="1150" as="targetPoint" />
            <mxPoint x="425" y="1150.3099999999997" as="sourcePoint" />
          </mxGeometry>
        </mxCell>
        <mxCell id="pnKsWl6k3-rWOxbT1f3y-134" value="idc.jarvis-proxy.woa.com:8080" style="text;html=1;strokeColor=none;fillColor=none;align=center;verticalAlign=middle;whiteSpace=wrap;rounded=0;fontColor=#050505;" vertex="1" parent="1">
          <mxGeometry x="99" y="1004" width="173" height="20" as="geometry" />
        </mxCell>
        <mxCell id="pnKsWl6k3-rWOxbT1f3y-135" value="OAVPC用户" style="shape=umlLifeline;perimeter=lifelinePerimeter;container=1;collapsible=0;recursiveResize=0;shadow=0;strokeWidth=1;rounded=1;" vertex="1" parent="1">
          <mxGeometry x="45" y="1340" width="100" height="300" as="geometry" />
        </mxCell>
        <mxCell id="pnKsWl6k3-rWOxbT1f3y-136" value="" style="points=[];perimeter=orthogonalPerimeter;shadow=0;strokeWidth=1;rounded=1;" vertex="1" parent="pnKsWl6k3-rWOxbT1f3y-135">
          <mxGeometry x="45" y="70" width="10" height="190" as="geometry" />
        </mxCell>
        <mxCell id="pnKsWl6k3-rWOxbT1f3y-137" value="OAVPC Nginx(CVM)" style="shape=umlLifeline;perimeter=lifelinePerimeter;container=1;collapsible=0;recursiveResize=0;shadow=0;strokeWidth=1;rounded=1;" vertex="1" parent="1">
          <mxGeometry x="241" y="1341" width="115" height="300" as="geometry" />
        </mxCell>
        <mxCell id="pnKsWl6k3-rWOxbT1f3y-138" value="" style="points=[];perimeter=orthogonalPerimeter;shadow=0;strokeWidth=1;rounded=1;" vertex="1" parent="pnKsWl6k3-rWOxbT1f3y-137">
          <mxGeometry x="52.5" y="80" width="10" height="180" as="geometry" />
        </mxCell>
        <mxCell id="pnKsWl6k3-rWOxbT1f3y-139" value="return" style="verticalAlign=bottom;endArrow=open;dashed=1;endSize=8;exitX=-0.25;exitY=0.994;shadow=0;strokeWidth=1;curved=1;exitDx=0;exitDy=0;exitPerimeter=0;" edge="1" parent="1" source="pnKsWl6k3-rWOxbT1f3y-138" target="pnKsWl6k3-rWOxbT1f3y-136">
          <mxGeometry relative="1" as="geometry">
            <mxPoint x="200" y="1496" as="targetPoint" />
          </mxGeometry>
        </mxCell>
        <mxCell id="pnKsWl6k3-rWOxbT1f3y-140" value="访问oa-idc.jarvis-proxy.woa.com" style="verticalAlign=bottom;endArrow=block;entryX=0;entryY=0;shadow=0;strokeWidth=1;curved=1;" edge="1" parent="1" source="pnKsWl6k3-rWOxbT1f3y-136" target="pnKsWl6k3-rWOxbT1f3y-138">
          <mxGeometry relative="1" as="geometry">
            <mxPoint x="200" y="1420" as="sourcePoint" />
          </mxGeometry>
        </mxCell>
        <mxCell id="pnKsWl6k3-rWOxbT1f3y-141" value="应用网关" style="shape=umlLifeline;perimeter=lifelinePerimeter;container=1;collapsible=0;recursiveResize=0;shadow=0;strokeWidth=1;rounded=1;" vertex="1" parent="1">
          <mxGeometry x="375" y="1340" width="100" height="300" as="geometry" />
        </mxCell>
        <mxCell id="pnKsWl6k3-rWOxbT1f3y-142" value="" style="points=[];perimeter=orthogonalPerimeter;shadow=0;strokeWidth=1;rounded=1;" vertex="1" parent="pnKsWl6k3-rWOxbT1f3y-141">
          <mxGeometry x="45" y="110" width="10" height="120" as="geometry" />
        </mxCell>
        <mxCell id="pnKsWl6k3-rWOxbT1f3y-143" value="云梯Nginx(CVM)" style="shape=umlLifeline;perimeter=lifelinePerimeter;container=1;collapsible=0;recursiveResize=0;shadow=0;strokeWidth=1;rounded=1;" vertex="1" parent="1">
          <mxGeometry x="530" y="1340" width="100" height="300" as="geometry" />
        </mxCell>
        <mxCell id="pnKsWl6k3-rWOxbT1f3y-144" value="" style="points=[];perimeter=orthogonalPerimeter;shadow=0;strokeWidth=1;rounded=1;" vertex="1" parent="pnKsWl6k3-rWOxbT1f3y-143">
          <mxGeometry x="45" y="110" width="10" height="110" as="geometry" />
        </mxCell>
        <mxCell id="pnKsWl6k3-rWOxbT1f3y-145" value="外网http(s)接口" style="shape=umlLifeline;perimeter=lifelinePerimeter;container=1;collapsible=0;recursiveResize=0;shadow=0;strokeWidth=1;rounded=1;" vertex="1" parent="1">
          <mxGeometry x="657.5" y="1340" width="100" height="300" as="geometry" />
        </mxCell>
        <mxCell id="pnKsWl6k3-rWOxbT1f3y-146" value="" style="points=[];perimeter=orthogonalPerimeter;shadow=0;strokeWidth=1;rounded=1;" vertex="1" parent="pnKsWl6k3-rWOxbT1f3y-145">
          <mxGeometry x="45" y="170" width="10" height="30" as="geometry" />
        </mxCell>
        <mxCell id="pnKsWl6k3-rWOxbT1f3y-147" value="Actor" style="shape=umlActor;verticalLabelPosition=bottom;verticalAlign=top;html=1;outlineConnect=0;rounded=1;" vertex="1" parent="1">
          <mxGeometry x="45" y="1390" width="30" height="60" as="geometry" />
        </mxCell>
        <mxCell id="pnKsWl6k3-rWOxbT1f3y-148" value="" style="verticalAlign=bottom;startArrow=oval;endArrow=block;startSize=8;shadow=0;strokeWidth=1;exitX=1;exitY=0.3333333333333333;exitDx=0;exitDy=0;exitPerimeter=0;curved=1;" edge="1" parent="1" source="pnKsWl6k3-rWOxbT1f3y-147" target="pnKsWl6k3-rWOxbT1f3y-136">
          <mxGeometry relative="1" as="geometry">
            <mxPoint x="30" y="1410" as="sourcePoint" />
          </mxGeometry>
        </mxCell>
        <mxCell id="pnKsWl6k3-rWOxbT1f3y-149" value="proxy_pass" style="verticalAlign=bottom;endArrow=block;shadow=0;strokeWidth=1;curved=1;fontColor=#050505;" edge="1" parent="1">
          <mxGeometry relative="1" as="geometry">
            <mxPoint x="303.5" y="1469.0000000000002" as="sourcePoint" />
            <mxPoint x="420" y="1469.0000000000002" as="targetPoint" />
          </mxGeometry>
        </mxCell>
        <mxCell id="pnKsWl6k3-rWOxbT1f3y-150" value="访问网关实例" style="verticalAlign=bottom;endArrow=block;shadow=0;strokeWidth=1;curved=1;" edge="1" parent="1" target="pnKsWl6k3-rWOxbT1f3y-143">
          <mxGeometry relative="1" as="geometry">
            <mxPoint x="430" y="1450" as="sourcePoint" />
            <mxPoint x="540" y="1450" as="targetPoint" />
          </mxGeometry>
        </mxCell>
        <mxCell id="pnKsWl6k3-rWOxbT1f3y-151" value="proxy_pass url" style="verticalAlign=bottom;endArrow=block;shadow=0;strokeWidth=1;curved=1;exitX=0.943;exitY=0.559;exitDx=0;exitDy=0;exitPerimeter=0;" edge="1" parent="1" source="pnKsWl6k3-rWOxbT1f3y-144">
          <mxGeometry relative="1" as="geometry">
            <mxPoint x="589.8399999999999" y="1511.33" as="sourcePoint" />
            <mxPoint x="705.0000000000002" y="1510" as="targetPoint" />
            <Array as="points">
              <mxPoint x="680.5" y="1510" />
            </Array>
          </mxGeometry>
        </mxCell>
        <mxCell id="pnKsWl6k3-rWOxbT1f3y-152" value="idc网关内网地址&lt;br&gt;idc.jarvis-proxy.woa.com" style="text;html=1;align=center;verticalAlign=middle;resizable=0;points=[];autosize=1;rounded=1;" vertex="1" parent="1">
          <mxGeometry x="425" y="1460" width="150" height="30" as="geometry" />
        </mxCell>
        <mxCell id="pnKsWl6k3-rWOxbT1f3y-153" value="return" style="verticalAlign=bottom;endArrow=open;dashed=1;endSize=8;exitX=0;exitY=0.95;shadow=0;strokeWidth=1;curved=1;entryX=1.133;entryY=0.836;entryDx=0;entryDy=0;entryPerimeter=0;" edge="1" parent="1" target="pnKsWl6k3-rWOxbT1f3y-144">
          <mxGeometry relative="1" as="geometry">
            <mxPoint x="590" y="1540" as="targetPoint" />
            <mxPoint x="710" y="1540.31" as="sourcePoint" />
          </mxGeometry>
        </mxCell>
        <mxCell id="pnKsWl6k3-rWOxbT1f3y-154" value="return" style="verticalAlign=bottom;endArrow=open;dashed=1;endSize=8;shadow=0;strokeWidth=1;curved=1;" edge="1" parent="1" source="pnKsWl6k3-rWOxbT1f3y-143">
          <mxGeometry relative="1" as="geometry">
            <mxPoint x="432.5" y="1560" as="targetPoint" />
            <mxPoint x="547.5" y="1560.31" as="sourcePoint" />
          </mxGeometry>
        </mxCell>
        <mxCell id="pnKsWl6k3-rWOxbT1f3y-155" value="return" style="verticalAlign=bottom;endArrow=open;dashed=1;endSize=8;exitX=0;exitY=0.95;shadow=0;strokeWidth=1;curved=1;" edge="1" parent="1" target="pnKsWl6k3-rWOxbT1f3y-138">
          <mxGeometry relative="1" as="geometry">
            <mxPoint x="280" y="1570" as="targetPoint" />
            <mxPoint x="425" y="1570.31" as="sourcePoint" />
          </mxGeometry>
        </mxCell>
        <mxCell id="pnKsWl6k3-rWOxbT1f3y-156" value="应用网关oa-&amp;gt;idc&lt;br&gt;代理地址&lt;br&gt;ebs.oss.com/***" style="text;html=1;align=center;verticalAlign=middle;resizable=0;points=[];autosize=1;rounded=1;" vertex="1" parent="1">
          <mxGeometry x="309" y="1468" width="100" height="50" as="geometry" />
        </mxCell>
        <mxCell id="pnKsWl6k3-rWOxbT1f3y-157" value="&lt;span&gt;?url=urlencode(XXX)&lt;br&gt;对目标url 进行urlencode 编码传入&lt;br&gt;&lt;/span&gt;" style="text;html=1;align=left;verticalAlign=middle;resizable=0;points=[];autosize=1;rounded=1;arcSize=50;" vertex="1" parent="1">
          <mxGeometry x="110" y="1420" width="200" height="30" as="geometry" />
        </mxCell>
        <mxCell id="pnKsWl6k3-rWOxbT1f3y-158" value="1.获取url 参数&lt;br&gt;2.解码url" style="edgeStyle=orthogonalEdgeStyle;html=1;align=left;spacingLeft=2;endArrow=block;rounded=0;" edge="1" parent="1">
          <mxGeometry relative="1" as="geometry">
            <mxPoint x="586" y="1460" as="sourcePoint" />
            <Array as="points">
              <mxPoint x="611" y="1460" />
            </Array>
            <mxPoint x="586" y="1480" as="targetPoint" />
          </mxGeometry>
        </mxCell>
      </root>
    </mxGraphModel>
  </diagram>
</mxfile>
